<svg width="12" height="12" viewBox="0 0 12 12" fill="none" xmlns="http://www.w3.org/2000/svg">
<g id="Frame" opacity="0.5" clip-path="url(#clip0_233_43)">
<g id="Group">
<path id="Vector" d="M1.37498 6C1.37498 3.765 1.43998 3.255 1.84998 2.85C2.25498 2.44 2.76498 2.37 4.99498 2.37H6.99498C9.22498 2.37 9.73498 2.435 10.14 2.845C10.545 3.25 10.615 3.76 10.615 5.99V6.99C10.615 9.22 10.545 9.73 10.135 10.135C9.72498 10.54 9.21498 10.61 6.98498 10.61H4.98498C2.74998 10.61 2.23998 10.54 1.83498 10.13C1.42498 9.72 1.35498 9.21 1.35498 6.98V5.98L1.37498 6ZM0.62498 6V7C0.62498 9.48 0.699981 10.06 1.31998 10.675C1.93498 11.29 2.51498 11.37 4.99498 11.37H6.99498C9.47498 11.37 10.055 11.29 10.67 10.67C11.285 10.05 11.365 9.47 11.365 6.99V5.99C11.365 3.505 11.285 2.925 10.665 2.31C10.045 1.69 9.46498 1.61 6.98498 1.61H4.98498C2.49998 1.61 1.91998 1.685 1.30498 2.305C0.68498 2.92 0.60498 3.5 0.60498 5.98L0.62498 6Z" fill="#1C1C1E"/>
<path id="Vector_2" d="M3.875 2V1.25C3.875 1.04 3.705 0.875 3.5 0.875C3.29 0.875 3.125 1.04 3.125 1.25V2C3.125 2.205 3.29 2.375 3.5 2.375C3.705 2.375 3.875 2.205 3.875 2ZM8.875 2V1.25C8.875 1.04 8.705 0.875 8.5 0.875C8.29 0.875 8.125 1.04 8.125 1.25V2C8.125 2.205 8.29 2.375 8.5 2.375C8.705 2.375 8.875 2.205 8.875 2ZM1.25 4.875H10.75C10.955 4.875 11.125 4.705 11.125 4.5C11.125 4.29 10.955 4.125 10.75 4.125H1.25C1.04 4.125 0.875 4.29 0.875 4.5C0.875 4.705 1.04 4.875 1.25 4.875Z" fill="#1C1C1E"/>
<path id="Vector_3" d="M9 8.5C9 8.775 8.775 9 8.5 9C8.22 9 8 8.775 8 8.5C8 8.22 8.22 8 8.5 8C8.775 8 9 8.22 9 8.5ZM9 6.5C9 6.775 8.775 7 8.5 7C8.22 7 8 6.775 8 6.5C8 6.22 8.22 6 8.5 6C8.775 6 9 6.22 9 6.5ZM6.5 8.5C6.5 8.775 6.275 9 6 9C5.72 9 5.5 8.775 5.5 8.5C5.5 8.22 5.72 8 6 8C6.275 8 6.5 8.22 6.5 8.5ZM6.5 6.5C6.5 6.775 6.275 7 6 7C5.72 7 5.5 6.775 5.5 6.5C5.5 6.22 5.72 6 6 6C6.275 6 6.5 6.22 6.5 6.5ZM4 8.5C4 8.775 3.775 9 3.5 9C3.22 9 3 8.775 3 8.5C3 8.22 3.22 8 3.5 8C3.775 8 4 8.22 4 8.5ZM4 6.5C4 6.775 3.775 7 3.5 7C3.22 7 3 6.775 3 6.5C3 6.22 3.22 6 3.5 6C3.775 6 4 6.22 4 6.5Z" fill="#1C1C1E"/>
</g>
</g>
<defs>
<clipPath id="clip0_233_43">
<rect width="12" height="12" fill="white"/>
</clipPath>
</defs>
</svg>
